<?xml version="1.0" encoding="UTF-8" standalone="no"?>
<!DOCTYPE svg PUBLIC "-//W3C//DTD SVG 1.1//EN"
 "http://www.w3.org/Graphics/SVG/1.1/DTD/svg11.dtd">
<!-- Generated by graphviz version 8.0.5 (20230506.1012)
 -->
<!-- Title: snakemake_dag Pages: 1 -->
<svg width="225pt" height="332pt"
 viewBox="0.00 0.00 224.50 332.00" xmlns="http://www.w3.org/2000/svg" xmlns:xlink="http://www.w3.org/1999/xlink">
<g id="graph0" class="graph" transform="scale(1 1) rotate(0) translate(4 328)">
<title>snakemake_dag</title>
<polygon fill="white" stroke="none" points="-4,4 -4,-328 220.5,-328 220.5,4 -4,4"/>
<!-- 0 -->
<g id="node1" class="node">
<title>0</title>
<path fill="none" stroke="#56a9d8" stroke-width="2" d="M95.88,-36C95.88,-36 65.88,-36 65.88,-36 59.88,-36 53.88,-30 53.88,-24 53.88,-24 53.88,-12 53.88,-12 53.88,-6 59.88,0 65.88,0 65.88,0 95.88,0 95.88,0 101.88,0 107.88,-6 107.88,-12 107.88,-12 107.88,-24 107.88,-24 107.88,-30 101.88,-36 95.88,-36"/>
<text text-anchor="middle" x="80.88" y="-14.88" font-family="sans" font-size="10.00">all</text>
</g>
<!-- 1 -->
<g id="node2" class="node">
<title>1</title>
<path fill="none" stroke="#56d8a9" stroke-width="2" d="M95.88,-108C95.88,-108 65.88,-108 65.88,-108 59.88,-108 53.88,-102 53.88,-96 53.88,-96 53.88,-84 53.88,-84 53.88,-78 59.88,-72 65.88,-72 65.88,-72 95.88,-72 95.88,-72 101.88,-72 107.88,-78 107.88,-84 107.88,-84 107.88,-96 107.88,-96 107.88,-102 101.88,-108 95.88,-108"/>
<text text-anchor="middle" x="80.88" y="-86.88" font-family="sans" font-size="10.00">ATEM</text>
</g>
<!-- 1&#45;&gt;0 -->
<g id="edge1" class="edge">
<title>1&#45;&gt;0</title>
<path fill="none" stroke="grey" stroke-width="2" d="M80.88,-71.34C80.88,-64.75 80.88,-57.08 80.88,-49.67"/>
<polygon fill="grey" stroke="grey" stroke-width="2" points="84.38,-49.9 80.88,-39.9 77.38,-49.9 84.38,-49.9"/>
</g>
<!-- 2 -->
<g id="node3" class="node">
<title>2</title>
<path fill="none" stroke="#59d856" stroke-width="2" d="M79.75,-252C79.75,-252 12,-252 12,-252 6,-252 0,-246 0,-240 0,-240 0,-228 0,-228 0,-222 6,-216 12,-216 12,-216 79.75,-216 79.75,-216 85.75,-216 91.75,-222 91.75,-228 91.75,-228 91.75,-240 91.75,-240 91.75,-246 85.75,-252 79.75,-252"/>
<text text-anchor="middle" x="45.88" y="-230.88" font-family="sans" font-size="10.00">samfilter_reads</text>
</g>
<!-- 2&#45;&gt;1 -->
<g id="edge2" class="edge">
<title>2&#45;&gt;1</title>
<path fill="none" stroke="grey" stroke-width="2" d="M37,-215.01C29.19,-196.6 20.43,-167.44 29.88,-144 33.77,-134.34 40.36,-125.46 47.53,-117.83"/>
<polygon fill="grey" stroke="grey" stroke-width="2" points="50.02,-120.36 54.77,-110.89 45.15,-115.33 50.02,-120.36"/>
</g>
<!-- 4 -->
<g id="node5" class="node">
<title>4</title>
<path fill="none" stroke="#afd856" stroke-width="2" d="M111,-180C111,-180 50.75,-180 50.75,-180 44.75,-180 38.75,-174 38.75,-168 38.75,-168 38.75,-156 38.75,-156 38.75,-150 44.75,-144 50.75,-144 50.75,-144 111,-144 111,-144 117,-144 123,-150 123,-156 123,-156 123,-168 123,-168 123,-174 117,-180 111,-180"/>
<text text-anchor="middle" x="80.88" y="-158.88" font-family="sans" font-size="10.00">get_metadata</text>
</g>
<!-- 2&#45;&gt;4 -->
<g id="edge6" class="edge">
<title>2&#45;&gt;4</title>
<path fill="none" stroke="grey" stroke-width="2" d="M54.71,-215.34C58.2,-208.34 62.32,-200.12 66.23,-192.28"/>
<polygon fill="grey" stroke="grey" stroke-width="2" points="69.58,-193.41 70.92,-182.9 63.32,-190.28 69.58,-193.41"/>
</g>
<!-- 3 -->
<g id="node4" class="node">
<title>3</title>
<path fill="none" stroke="#d85656" stroke-width="2" d="M68.5,-324C68.5,-324 23.25,-324 23.25,-324 17.25,-324 11.25,-318 11.25,-312 11.25,-312 11.25,-300 11.25,-300 11.25,-294 17.25,-288 23.25,-288 23.25,-288 68.5,-288 68.5,-288 74.5,-288 80.5,-294 80.5,-300 80.5,-300 80.5,-312 80.5,-312 80.5,-318 74.5,-324 68.5,-324"/>
<text text-anchor="middle" x="45.88" y="-302.88" font-family="sans" font-size="10.00">split_reads</text>
</g>
<!-- 3&#45;&gt;2 -->
<g id="edge5" class="edge">
<title>3&#45;&gt;2</title>
<path fill="none" stroke="grey" stroke-width="2" d="M45.88,-287.34C45.88,-280.75 45.88,-273.08 45.88,-265.67"/>
<polygon fill="grey" stroke="grey" stroke-width="2" points="49.38,-265.9 45.88,-255.9 42.38,-265.9 49.38,-265.9"/>
</g>
<!-- 4&#45;&gt;1 -->
<g id="edge3" class="edge">
<title>4&#45;&gt;1</title>
<path fill="none" stroke="grey" stroke-width="2" d="M80.88,-143.34C80.88,-136.75 80.88,-129.08 80.88,-121.67"/>
<polygon fill="grey" stroke="grey" stroke-width="2" points="84.38,-121.9 80.88,-111.9 77.38,-121.9 84.38,-121.9"/>
</g>
<!-- 5 -->
<g id="node6" class="node">
<title>5</title>
<path fill="none" stroke="#d8ac56" stroke-width="2" d="M204.5,-180C204.5,-180 153.25,-180 153.25,-180 147.25,-180 141.25,-174 141.25,-168 141.25,-168 141.25,-156 141.25,-156 141.25,-150 147.25,-144 153.25,-144 153.25,-144 204.5,-144 204.5,-144 210.5,-144 216.5,-150 216.5,-156 216.5,-156 216.5,-168 216.5,-168 216.5,-174 210.5,-180 204.5,-180"/>
<text text-anchor="middle" x="178.88" y="-158.88" font-family="sans" font-size="10.00">count_reads</text>
</g>
<!-- 5&#45;&gt;1 -->
<g id="edge4" class="edge">
<title>5&#45;&gt;1</title>
<path fill="none" stroke="grey" stroke-width="2" d="M153.89,-143.15C142.49,-135.01 128.78,-125.22 116.33,-116.33"/>
<polygon fill="grey" stroke="grey" stroke-width="2" points="117.98,-112.78 107.81,-109.81 113.92,-118.47 117.98,-112.78"/>
</g>
</g>
</svg>
