<?xml version="1.0" encoding="UTF-8" standalone="no"?>
<!DOCTYPE svg PUBLIC "-//W3C//DTD SVG 1.1//EN"
 "http://www.w3.org/Graphics/SVG/1.1/DTD/svg11.dtd">
<!-- Generated by graphviz version 8.0.5 (20230506.1012)
 -->
<!-- Title: snakemake_dag Pages: 1 -->
<svg width="338pt" height="620pt"
 viewBox="0.00 0.00 337.75 620.00" xmlns="http://www.w3.org/2000/svg" xmlns:xlink="http://www.w3.org/1999/xlink">
<g id="graph0" class="graph" transform="scale(1 1) rotate(0) translate(4 616)">
<title>snakemake_dag</title>
<polygon fill="white" stroke="none" points="-4,4 -4,-616 333.75,-616 333.75,4 -4,4"/>
<!-- 0 -->
<g id="node1" class="node">
<title>0</title>
<path fill="none" stroke="#d88d56" stroke-width="2" d="M182.5,-36C182.5,-36 152.5,-36 152.5,-36 146.5,-36 140.5,-30 140.5,-24 140.5,-24 140.5,-12 140.5,-12 140.5,-6 146.5,0 152.5,0 152.5,0 182.5,0 182.5,0 188.5,0 194.5,-6 194.5,-12 194.5,-12 194.5,-24 194.5,-24 194.5,-30 188.5,-36 182.5,-36"/>
<text text-anchor="middle" x="167.5" y="-14.88" font-family="sans" font-size="10.00">all</text>
</g>
<!-- 1 -->
<g id="node2" class="node">
<title>1</title>
<path fill="none" stroke="#56c1d8" stroke-width="2" d="M182.5,-396C182.5,-396 152.5,-396 152.5,-396 146.5,-396 140.5,-390 140.5,-384 140.5,-384 140.5,-372 140.5,-372 140.5,-366 146.5,-360 152.5,-360 152.5,-360 182.5,-360 182.5,-360 188.5,-360 194.5,-366 194.5,-372 194.5,-372 194.5,-384 194.5,-384 194.5,-390 188.5,-396 182.5,-396"/>
<text text-anchor="middle" x="167.5" y="-374.88" font-family="sans" font-size="10.00">ATEM</text>
</g>
<!-- 1&#45;&gt;0 -->
<g id="edge1" class="edge">
<title>1&#45;&gt;0</title>
<path fill="none" stroke="grey" stroke-width="2" d="M167.5,-359.07C167.5,-332.13 167.5,-279.62 167.5,-235 167.5,-235 167.5,-235 167.5,-161 167.5,-122.65 167.5,-78.48 167.5,-49.72"/>
<polygon fill="grey" stroke="grey" stroke-width="2" points="171,-49.93 167.5,-39.93 164,-49.93 171,-49.93"/>
</g>
<!-- 8 -->
<g id="node9" class="node">
<title>8</title>
<path fill="none" stroke="#59d856" stroke-width="2" d="M115,-324C115,-324 24,-324 24,-324 18,-324 12,-318 12,-312 12,-312 12,-300 12,-300 12,-294 18,-288 24,-288 24,-288 115,-288 115,-288 121,-288 127,-294 127,-300 127,-300 127,-312 127,-312 127,-318 121,-324 115,-324"/>
<text text-anchor="middle" x="69.5" y="-302.88" font-family="sans" font-size="10.00">filter_bam_by_ATEM</text>
</g>
<!-- 1&#45;&gt;8 -->
<g id="edge12" class="edge">
<title>1&#45;&gt;8</title>
<path fill="none" stroke="grey" stroke-width="2" d="M142.52,-359.15C131.11,-351.01 117.4,-341.22 104.96,-332.33"/>
<polygon fill="grey" stroke="grey" stroke-width="2" points="106.61,-328.78 96.44,-325.81 102.54,-334.47 106.61,-328.78"/>
</g>
<!-- 9 -->
<g id="node10" class="node">
<title>9</title>
<path fill="none" stroke="#d85656" stroke-width="2" d="M317.75,-108C317.75,-108 207.25,-108 207.25,-108 201.25,-108 195.25,-102 195.25,-96 195.25,-96 195.25,-84 195.25,-84 195.25,-78 201.25,-72 207.25,-72 207.25,-72 317.75,-72 317.75,-72 323.75,-72 329.75,-78 329.75,-84 329.75,-84 329.75,-96 329.75,-96 329.75,-102 323.75,-108 317.75,-108"/>
<text text-anchor="middle" x="262.5" y="-86.88" font-family="sans" font-size="10.00">all_reads_accounted_for</text>
</g>
<!-- 1&#45;&gt;9 -->
<g id="edge13" class="edge">
<title>1&#45;&gt;9</title>
<path fill="none" stroke="grey" stroke-width="2" d="M173.44,-359.11C189.3,-311.36 232.77,-180.51 252.51,-121.08"/>
<polygon fill="grey" stroke="grey" stroke-width="2" points="256.73,-121.48 256.56,-110.88 250.09,-119.27 256.73,-121.48"/>
</g>
<!-- 2 -->
<g id="node3" class="node">
<title>2</title>
<path fill="none" stroke="#56d8c1" stroke-width="2" d="M166.38,-540C166.38,-540 98.62,-540 98.62,-540 92.62,-540 86.62,-534 86.62,-528 86.62,-528 86.62,-516 86.62,-516 86.62,-510 92.62,-504 98.62,-504 98.62,-504 166.38,-504 166.38,-504 172.38,-504 178.38,-510 178.38,-516 178.38,-516 178.38,-528 178.38,-528 178.38,-534 172.38,-540 166.38,-540"/>
<text text-anchor="middle" x="132.5" y="-518.88" font-family="sans" font-size="10.00">samfilter_reads</text>
</g>
<!-- 2&#45;&gt;1 -->
<g id="edge4" class="edge">
<title>2&#45;&gt;1</title>
<path fill="none" stroke="grey" stroke-width="2" d="M138.2,-503.44C141.44,-493.16 145.44,-479.91 148.5,-468 153.47,-448.68 158.16,-426.77 161.63,-409.53"/>
<polygon fill="grey" stroke="grey" stroke-width="2" points="165.64,-409.32 164.14,-398.83 158.77,-407.96 165.64,-409.32"/>
</g>
<!-- 4 -->
<g id="node5" class="node">
<title>4</title>
<path fill="none" stroke="#d8bc56" stroke-width="2" d="M127.62,-468C127.62,-468 67.38,-468 67.38,-468 61.38,-468 55.38,-462 55.38,-456 55.38,-456 55.38,-444 55.38,-444 55.38,-438 61.38,-432 67.38,-432 67.38,-432 127.62,-432 127.62,-432 133.62,-432 139.62,-438 139.62,-444 139.62,-444 139.62,-456 139.62,-456 139.62,-462 133.62,-468 127.62,-468"/>
<text text-anchor="middle" x="97.5" y="-446.88" font-family="sans" font-size="10.00">get_metadata</text>
</g>
<!-- 2&#45;&gt;4 -->
<g id="edge8" class="edge">
<title>2&#45;&gt;4</title>
<path fill="none" stroke="grey" stroke-width="2" d="M123.67,-503.34C120.17,-496.34 116.06,-488.12 112.14,-480.28"/>
<polygon fill="grey" stroke="grey" stroke-width="2" points="115.05,-478.28 107.45,-470.9 108.79,-481.41 115.05,-478.28"/>
</g>
<!-- 2&#45;&gt;8 -->
<g id="edge11" class="edge">
<title>2&#45;&gt;8</title>
<path fill="none" stroke="grey" stroke-width="2" d="M86.05,-503.49C70.65,-495.21 55.22,-483.62 46.5,-468 23.43,-426.68 40.42,-370.46 54.91,-336.56"/>
<polygon fill="grey" stroke="grey" stroke-width="2" points="58.33,-337.29 59.25,-326.74 51.95,-334.41 58.33,-337.29"/>
</g>
<!-- 2&#45;&gt;9 -->
<g id="edge15" class="edge">
<title>2&#45;&gt;9</title>
<path fill="none" stroke="grey" stroke-width="2" d="M179.23,-516.18C212.24,-510.29 254.99,-497.17 280.5,-468 307.13,-437.56 299.5,-419.45 299.5,-379 299.5,-379 299.5,-379 299.5,-233 299.5,-193.23 285.74,-149.17 275.01,-120.83"/>
<polygon fill="grey" stroke="grey" stroke-width="2" points="278.27,-119.01 271.35,-110.99 271.75,-121.58 278.27,-119.01"/>
</g>
<!-- 3 -->
<g id="node4" class="node">
<title>3</title>
<path fill="none" stroke="#88d856" stroke-width="2" d="M155.12,-612C155.12,-612 109.88,-612 109.88,-612 103.88,-612 97.88,-606 97.88,-600 97.88,-600 97.88,-588 97.88,-588 97.88,-582 103.88,-576 109.88,-576 109.88,-576 155.12,-576 155.12,-576 161.12,-576 167.12,-582 167.12,-588 167.12,-588 167.12,-600 167.12,-600 167.12,-606 161.12,-612 155.12,-612"/>
<text text-anchor="middle" x="132.5" y="-590.88" font-family="sans" font-size="10.00">split_reads</text>
</g>
<!-- 3&#45;&gt;2 -->
<g id="edge7" class="edge">
<title>3&#45;&gt;2</title>
<path fill="none" stroke="grey" stroke-width="2" d="M132.5,-575.34C132.5,-568.75 132.5,-561.08 132.5,-553.67"/>
<polygon fill="grey" stroke="grey" stroke-width="2" points="136,-553.9 132.5,-543.9 129,-553.9 136,-553.9"/>
</g>
<!-- 4&#45;&gt;1 -->
<g id="edge5" class="edge">
<title>4&#45;&gt;1</title>
<path fill="none" stroke="grey" stroke-width="2" d="M115.16,-431.34C122.81,-423.69 131.94,-414.56 140.42,-406.08"/>
<polygon fill="grey" stroke="grey" stroke-width="2" points="143,-408.45 147.6,-398.9 138.05,-403.5 143,-408.45"/>
</g>
<!-- 5 -->
<g id="node6" class="node">
<title>5</title>
<path fill="none" stroke="#568ad8" stroke-width="2" d="M259.12,-468C259.12,-468 207.88,-468 207.88,-468 201.88,-468 195.88,-462 195.88,-456 195.88,-456 195.88,-444 195.88,-444 195.88,-438 201.88,-432 207.88,-432 207.88,-432 259.12,-432 259.12,-432 265.12,-432 271.12,-438 271.12,-444 271.12,-444 271.12,-456 271.12,-456 271.12,-462 265.12,-468 259.12,-468"/>
<text text-anchor="middle" x="233.5" y="-446.88" font-family="sans" font-size="10.00">count_reads</text>
</g>
<!-- 5&#45;&gt;1 -->
<g id="edge6" class="edge">
<title>5&#45;&gt;1</title>
<path fill="none" stroke="grey" stroke-width="2" d="M216.85,-431.34C209.71,-423.77 201.21,-414.75 193.29,-406.35"/>
<polygon fill="grey" stroke="grey" stroke-width="2" points="195.79,-403.78 186.38,-398.9 190.69,-408.58 195.79,-403.78"/>
</g>
<!-- 6 -->
<g id="node7" class="node">
<title>6</title>
<path fill="none" stroke="#56d88a" stroke-width="2" d="M127,-180C127,-180 12,-180 12,-180 6,-180 0,-174 0,-168 0,-168 0,-156 0,-156 0,-150 6,-144 12,-144 12,-144 127,-144 127,-144 133,-144 139,-150 139,-156 139,-156 139,-168 139,-168 139,-174 133,-180 127,-180"/>
<text text-anchor="middle" x="69.5" y="-158.88" font-family="sans" font-size="10.00">strand_merge_and_index</text>
</g>
<!-- 6&#45;&gt;0 -->
<g id="edge2" class="edge">
<title>6&#45;&gt;0</title>
<path fill="none" stroke="grey" stroke-width="2" d="M81.91,-143.02C98.55,-118.9 128.28,-75.83 147.94,-47.34"/>
<polygon fill="grey" stroke="grey" stroke-width="2" points="151.39,-49.06 154.19,-38.84 145.63,-45.08 151.39,-49.06"/>
</g>
<!-- 6&#45;&gt;9 -->
<g id="edge14" class="edge">
<title>6&#45;&gt;9</title>
<path fill="none" stroke="grey" stroke-width="2" d="M118.95,-143.06C144.04,-133.97 174.74,-122.83 201.3,-113.2"/>
<polygon fill="grey" stroke="grey" stroke-width="2" points="202.97,-116.59 211.18,-109.89 200.58,-110.01 202.97,-116.59"/>
</g>
<!-- 7 -->
<g id="node8" class="node">
<title>7</title>
<path fill="none" stroke="#bed856" stroke-width="2" d="M97,-252C97,-252 42,-252 42,-252 36,-252 30,-246 30,-240 30,-240 30,-228 30,-228 30,-222 36,-216 42,-216 42,-216 97,-216 97,-216 103,-216 109,-222 109,-228 109,-228 109,-240 109,-240 109,-246 103,-252 97,-252"/>
<text text-anchor="middle" x="69.5" y="-230.88" font-family="sans" font-size="10.00">sam_to_bam</text>
</g>
<!-- 7&#45;&gt;6 -->
<g id="edge9" class="edge">
<title>7&#45;&gt;6</title>
<path fill="none" stroke="grey" stroke-width="2" d="M69.5,-215.34C69.5,-208.75 69.5,-201.08 69.5,-193.67"/>
<polygon fill="grey" stroke="grey" stroke-width="2" points="73,-193.9 69.5,-183.9 66,-193.9 73,-193.9"/>
</g>
<!-- 8&#45;&gt;7 -->
<g id="edge10" class="edge">
<title>8&#45;&gt;7</title>
<path fill="none" stroke="grey" stroke-width="2" d="M69.5,-287.34C69.5,-280.75 69.5,-273.08 69.5,-265.67"/>
<polygon fill="grey" stroke="grey" stroke-width="2" points="73,-265.9 69.5,-255.9 66,-265.9 73,-265.9"/>
</g>
<!-- 9&#45;&gt;0 -->
<g id="edge3" class="edge">
<title>9&#45;&gt;0</title>
<path fill="none" stroke="grey" stroke-width="2" d="M238.53,-71.34C227.47,-63.19 214.15,-53.37 202.04,-44.45"/>
<polygon fill="grey" stroke="grey" stroke-width="2" points="203.92,-41.02 193.8,-37.9 199.77,-46.65 203.92,-41.02"/>
</g>
</g>
</svg>
