<?xml version="1.0" encoding="UTF-8" standalone="no"?>
<!DOCTYPE svg PUBLIC "-//W3C//DTD SVG 1.1//EN"
 "http://www.w3.org/Graphics/SVG/1.1/DTD/svg11.dtd">
<!-- Generated by graphviz version 8.0.5 (20230506.1012)
 -->
<!-- Title: snakemake_dag Pages: 1 -->
<svg width="265pt" height="548pt"
 viewBox="0.00 0.00 264.86 548.00" xmlns="http://www.w3.org/2000/svg" xmlns:xlink="http://www.w3.org/1999/xlink">
<g id="graph0" class="graph" transform="scale(1 1) rotate(0) translate(4 544)">
<title>snakemake_dag</title>
<polygon fill="white" stroke="none" points="-4,4 -4,-544 260.86,-544 260.86,4 -4,4"/>
<!-- 0 -->
<g id="node1" class="node">
<title>0</title>
<path fill="none" stroke="#5692d8" stroke-width="2" d="M153.36,-36C153.36,-36 123.36,-36 123.36,-36 117.36,-36 111.36,-30 111.36,-24 111.36,-24 111.36,-12 111.36,-12 111.36,-6 117.36,0 123.36,0 123.36,0 153.36,0 153.36,0 159.36,0 165.36,-6 165.36,-12 165.36,-12 165.36,-24 165.36,-24 165.36,-30 159.36,-36 153.36,-36"/>
<text text-anchor="middle" x="138.36" y="-14.88" font-family="sans" font-size="10.00">all</text>
</g>
<!-- 1 -->
<g id="node2" class="node">
<title>1</title>
<path fill="none" stroke="#d85656" stroke-width="2" stroke-dasharray="5,2" d="M104.36,-324C104.36,-324 74.36,-324 74.36,-324 68.36,-324 62.36,-318 62.36,-312 62.36,-312 62.36,-300 62.36,-300 62.36,-294 68.36,-288 74.36,-288 74.36,-288 104.36,-288 104.36,-288 110.36,-288 116.36,-294 116.36,-300 116.36,-300 116.36,-312 116.36,-312 116.36,-318 110.36,-324 104.36,-324"/>
<text text-anchor="middle" x="89.36" y="-302.88" font-family="sans" font-size="10.00">ATEM</text>
</g>
<!-- 1&#45;&gt;0 -->
<g id="edge1" class="edge">
<title>1&#45;&gt;0</title>
<path fill="none" stroke="grey" stroke-width="2" d="M88.25,-287.27C86.32,-247.66 84.57,-149.39 108.36,-72 110.89,-63.78 114.84,-55.42 119.05,-47.86"/>
<polygon fill="grey" stroke="grey" stroke-width="2" points="122.58,-49.12 124.73,-38.75 116.58,-45.52 122.58,-49.12"/>
</g>
<!-- 8 -->
<g id="node9" class="node">
<title>8</title>
<path fill="none" stroke="#56c9d8" stroke-width="2" d="M232.86,-252C232.86,-252 141.86,-252 141.86,-252 135.86,-252 129.86,-246 129.86,-240 129.86,-240 129.86,-228 129.86,-228 129.86,-222 135.86,-216 141.86,-216 141.86,-216 232.86,-216 232.86,-216 238.86,-216 244.86,-222 244.86,-228 244.86,-228 244.86,-240 244.86,-240 244.86,-246 238.86,-252 232.86,-252"/>
<text text-anchor="middle" x="187.36" y="-230.88" font-family="sans" font-size="10.00">filter_bam_by_ATEM</text>
</g>
<!-- 1&#45;&gt;8 -->
<g id="edge11" class="edge">
<title>1&#45;&gt;8</title>
<path fill="none" stroke="grey" stroke-width="2" d="M114.34,-287.15C125.75,-279.01 139.45,-269.22 151.9,-260.33"/>
<polygon fill="grey" stroke="grey" stroke-width="2" points="154.32,-262.47 160.42,-253.81 150.25,-256.78 154.32,-262.47"/>
</g>
<!-- 2 -->
<g id="node3" class="node">
<title>2</title>
<path fill="none" stroke="#d8cb56" stroke-width="2" stroke-dasharray="5,2" d="M90.23,-468C90.23,-468 22.48,-468 22.48,-468 16.48,-468 10.48,-462 10.48,-456 10.48,-456 10.48,-444 10.48,-444 10.48,-438 16.48,-432 22.48,-432 22.48,-432 90.23,-432 90.23,-432 96.23,-432 102.23,-438 102.23,-444 102.23,-444 102.23,-456 102.23,-456 102.23,-462 96.23,-468 90.23,-468"/>
<text text-anchor="middle" x="56.36" y="-446.88" font-family="sans" font-size="10.00">samfilter_reads</text>
</g>
<!-- 2&#45;&gt;1 -->
<g id="edge3" class="edge">
<title>2&#45;&gt;1</title>
<path fill="none" stroke="grey" stroke-width="2" d="M32.25,-431.11C21.89,-421.91 10.9,-409.74 5.36,-396 -0.62,-381.16 -2.37,-374.01 5.36,-360 15.03,-342.46 33.23,-329.92 50.22,-321.46"/>
<polygon fill="grey" stroke="grey" stroke-width="2" points="52.02,-324.57 59.67,-317.24 49.12,-318.2 52.02,-324.57"/>
</g>
<!-- 4 -->
<g id="node5" class="node">
<title>4</title>
<path fill="none" stroke="#afd856" stroke-width="2" stroke-dasharray="5,2" d="M86.48,-396C86.48,-396 26.23,-396 26.23,-396 20.23,-396 14.23,-390 14.23,-384 14.23,-384 14.23,-372 14.23,-372 14.23,-366 20.23,-360 26.23,-360 26.23,-360 86.48,-360 86.48,-360 92.48,-360 98.48,-366 98.48,-372 98.48,-372 98.48,-384 98.48,-384 98.48,-390 92.48,-396 86.48,-396"/>
<text text-anchor="middle" x="56.36" y="-374.88" font-family="sans" font-size="10.00">get_metadata</text>
</g>
<!-- 2&#45;&gt;4 -->
<g id="edge7" class="edge">
<title>2&#45;&gt;4</title>
<path fill="none" stroke="grey" stroke-width="2" d="M56.36,-431.34C56.36,-424.75 56.36,-417.08 56.36,-409.67"/>
<polygon fill="grey" stroke="grey" stroke-width="2" points="59.86,-409.9 56.36,-399.9 52.86,-409.9 59.86,-409.9"/>
</g>
<!-- 2&#45;&gt;8 -->
<g id="edge10" class="edge">
<title>2&#45;&gt;8</title>
<path fill="none" stroke="grey" stroke-width="2" d="M102.99,-445.55C136.43,-440.36 179.32,-427.52 201.36,-396 228.56,-357.09 213.69,-299.27 200.47,-264.55"/>
<polygon fill="grey" stroke="grey" stroke-width="2" points="203.75,-262.84 196.76,-254.87 197.26,-265.46 203.75,-262.84"/>
</g>
<!-- 3 -->
<g id="node4" class="node">
<title>3</title>
<path fill="none" stroke="#56d873" stroke-width="2" stroke-dasharray="5,2" d="M78.98,-540C78.98,-540 33.73,-540 33.73,-540 27.73,-540 21.73,-534 21.73,-528 21.73,-528 21.73,-516 21.73,-516 21.73,-510 27.73,-504 33.73,-504 33.73,-504 78.98,-504 78.98,-504 84.98,-504 90.98,-510 90.98,-516 90.98,-516 90.98,-528 90.98,-528 90.98,-534 84.98,-540 78.98,-540"/>
<text text-anchor="middle" x="56.36" y="-518.88" font-family="sans" font-size="10.00">split_reads</text>
</g>
<!-- 3&#45;&gt;2 -->
<g id="edge6" class="edge">
<title>3&#45;&gt;2</title>
<path fill="none" stroke="grey" stroke-width="2" d="M56.36,-503.34C56.36,-496.75 56.36,-489.08 56.36,-481.67"/>
<polygon fill="grey" stroke="grey" stroke-width="2" points="59.86,-481.9 56.36,-471.9 52.86,-481.9 59.86,-481.9"/>
</g>
<!-- 4&#45;&gt;1 -->
<g id="edge4" class="edge">
<title>4&#45;&gt;1</title>
<path fill="none" stroke="grey" stroke-width="2" d="M64.69,-359.34C67.94,-352.43 71.77,-344.31 75.42,-336.56"/>
<polygon fill="grey" stroke="grey" stroke-width="2" points="78.82,-337.44 79.92,-326.9 72.49,-334.45 78.82,-337.44"/>
</g>
<!-- 5 -->
<g id="node6" class="node">
<title>5</title>
<path fill="none" stroke="#70d856" stroke-width="2" stroke-dasharray="5,2" d="M179.98,-396C179.98,-396 128.73,-396 128.73,-396 122.73,-396 116.73,-390 116.73,-384 116.73,-384 116.73,-372 116.73,-372 116.73,-366 122.73,-360 128.73,-360 128.73,-360 179.98,-360 179.98,-360 185.98,-360 191.98,-366 191.98,-372 191.98,-372 191.98,-384 191.98,-384 191.98,-390 185.98,-396 179.98,-396"/>
<text text-anchor="middle" x="154.36" y="-374.88" font-family="sans" font-size="10.00">count_reads</text>
</g>
<!-- 5&#45;&gt;1 -->
<g id="edge5" class="edge">
<title>5&#45;&gt;1</title>
<path fill="none" stroke="grey" stroke-width="2" d="M137.96,-359.34C130.93,-351.77 122.56,-342.75 114.76,-334.35"/>
<polygon fill="grey" stroke="grey" stroke-width="2" points="117.35,-331.85 107.98,-326.9 112.22,-336.61 117.35,-331.85"/>
</g>
<!-- 6 -->
<g id="node7" class="node">
<title>6</title>
<path fill="none" stroke="#56d8a9" stroke-width="2" d="M244.86,-108C244.86,-108 129.86,-108 129.86,-108 123.86,-108 117.86,-102 117.86,-96 117.86,-96 117.86,-84 117.86,-84 117.86,-78 123.86,-72 129.86,-72 129.86,-72 244.86,-72 244.86,-72 250.86,-72 256.86,-78 256.86,-84 256.86,-84 256.86,-96 256.86,-96 256.86,-102 250.86,-108 244.86,-108"/>
<text text-anchor="middle" x="187.36" y="-86.88" font-family="sans" font-size="10.00">strand_merge_and_index</text>
</g>
<!-- 6&#45;&gt;0 -->
<g id="edge2" class="edge">
<title>6&#45;&gt;0</title>
<path fill="none" stroke="grey" stroke-width="2" d="M174.99,-71.34C169.93,-64.1 163.93,-55.53 158.27,-47.45"/>
<polygon fill="grey" stroke="grey" stroke-width="2" points="160.49,-45.09 151.89,-38.9 154.76,-49.1 160.49,-45.09"/>
</g>
<!-- 7 -->
<g id="node8" class="node">
<title>7</title>
<path fill="none" stroke="#d88d56" stroke-width="2" d="M214.86,-180C214.86,-180 159.86,-180 159.86,-180 153.86,-180 147.86,-174 147.86,-168 147.86,-168 147.86,-156 147.86,-156 147.86,-150 153.86,-144 159.86,-144 159.86,-144 214.86,-144 214.86,-144 220.86,-144 226.86,-150 226.86,-156 226.86,-156 226.86,-168 226.86,-168 226.86,-174 220.86,-180 214.86,-180"/>
<text text-anchor="middle" x="187.36" y="-158.88" font-family="sans" font-size="10.00">sam_to_bam</text>
</g>
<!-- 7&#45;&gt;6 -->
<g id="edge8" class="edge">
<title>7&#45;&gt;6</title>
<path fill="none" stroke="grey" stroke-width="2" d="M187.36,-143.34C187.36,-136.75 187.36,-129.08 187.36,-121.67"/>
<polygon fill="grey" stroke="grey" stroke-width="2" points="190.86,-121.9 187.36,-111.9 183.86,-121.9 190.86,-121.9"/>
</g>
<!-- 8&#45;&gt;7 -->
<g id="edge9" class="edge">
<title>8&#45;&gt;7</title>
<path fill="none" stroke="grey" stroke-width="2" d="M187.36,-215.34C187.36,-208.75 187.36,-201.08 187.36,-193.67"/>
<polygon fill="grey" stroke="grey" stroke-width="2" points="190.86,-193.9 187.36,-183.9 183.86,-193.9 190.86,-193.9"/>
</g>
</g>
</svg>
